<?xml version="1.0" ?><svg width="50px" height="50px" id="Layer_1" style="enable-background:new 0 0 52 52;" version="1.1" viewBox="0 0 52 52" xml:space="preserve" xmlns="http://www.w3.org/2000/svg" xmlns:xlink="http://www.w3.org/1999/xlink"><style type="text/css">
	.st0{fill:#231F20;}
</style><g><g><path class="st0" d="M5.1609597,2.9376888c7.3041139,0.0147998,14.6081963,0.0399175,21.9122219,0.0791039    c3.9840107,0.0213745,7.9680023,0.0464838,11.9519653,0.0753279c3.2147827,0.0232751,8.5007896-1.2436919,9.5704918,2.658731    c0.8869553,3.2357473-0.0433578,7.6928005-0.0982628,11.0487986c-0.0520172,3.179554-0.1040344,6.359108-0.1560555,9.538662    c-0.0624199,3.8154659-0.1248398,7.6309299-0.1872635,11.446394c-0.0260086,1.5897789-0.0520172,3.1795578-0.0780258,4.7693329    c-0.0437393,2.6734734,0.4591904,3.4909859-1.6388321,5.1162758c-2.6077614,2.0201721-7.8378754,1.033783-11.0858078,1.0336571    c-3.4931107-0.0001373-6.9862213-0.0002747-10.4793339-0.0004082c-5.1088924-0.0001984-20.2005119,2.3832703-21.6523247-3.5821266    c-0.7660418-3.1476097,0.0645611-7.5664215,0.0923879-10.8276825c0.0307961-3.6092262,0.0615919-7.2184525,0.0923877-10.8276806    c0.0136602-1.600935,0.3233471-20.0201912,0.736866-19.9272614C5.5516911,3.8557487,6.153924,1.6870408,4.7395134,1.3691846    c-3.6451483-0.819163-3.4227586,3.0818233-3.4447417,5.6582274c-0.0691515,8.1044464-0.1383029,16.2088928-0.2074546,24.3133392    c-0.0335956,3.9373398-0.0671911,7.8746796-0.1007869,11.8120155c-0.0151179,1.7717857-0.4500157,4.192234,0.6045756,5.7840919    c2.6163669,3.9492836,11.8390665,2.0162582,15.6596155,2.016407c7.9388924,0.000309,15.8777809,0.000618,23.8166733,0.000927    c4.6518326,0.0001831,8.7270508,1.1183205,9.1789398-4.3179016c0.6348763-7.6375427,0.2664108-15.4951096,0.3918037-23.1595764    c0.0624199-3.8154659,0.1248436-7.6309309,0.1872635-11.4463959c0.0419731-2.5656824,0.8225899-6.6854806-0.3697052-9.0861483    c-0.6864586-1.3821745-1.4531403-1.7290199-2.9359283-1.9977118c-4.2208672-0.7648518-9.1808662-0.1106653-13.4745903-0.1384068    C24.417202,0.7458466,14.789113,0.7071976,5.1609597,0.6876888C3.7130718,0.684755,3.710927,2.9347506,5.1609597,2.9376888    L5.1609597,2.9376888z"/></g><g><path class="st0" d="M3.0383897,15.2819967c15.2945232-0.2790976,30.5877018-0.1714859,45.8767738,0.322813    c1.4482727,0.0468225,1.4466286-2.2032299,0-2.25c-15.2890778-0.4942989-30.5822582-0.6019096-45.8767738-0.322813    C1.592242,13.0583858,1.5875648,15.3084717,3.0383897,15.2819967L3.0383897,15.2819967z"/></g><g><path class="st0" d="M17.5368652,9.4533958c1.4477673,0,1.4501648-2.25,0-2.25    C16.089098,7.2033958,16.0866985,9.4533958,17.5368652,9.4533958L17.5368652,9.4533958z"/></g><g><path class="st0" d="M13.6618652,9.4533958c1.4477673,0,1.4501657-2.25,0-2.25    C12.214097,7.2033958,12.2116995,9.4533958,13.6618652,9.4533958L13.6618652,9.4533958z"/></g><g><path class="st0" d="M9.7868652,9.5783958c1.4477673,0,1.4501657-2.25,0-2.25    C8.339097,7.3283958,8.3366995,9.5783958,9.7868652,9.5783958L9.7868652,9.5783958z"/></g><g><path class="st0" d="M31.0998154,29.9954166c0.6176605,0.165411,1.3845825,1.1167412,1.9390678,1.4972458    c0.7305984,0.5013618,1.5081558,0.9131908,2.3196449,1.2674885c0.0895805-0.6854057,0.1791611-1.3708096,0.2687416-2.0562172    c-2.1221008,0.5373001-4.0065269,1.6113358-5.5608253,3.1514893c-1.0300541,1.0206833,0.560894,2.6117134,1.5909901,1.590992    c1.2922077-1.2804489,2.8047581-2.1264229,4.5679722-2.5728531c0.8669052-0.2194939,1.1806984-1.6580524,0.2687416-2.0562172    c-0.9254837-0.4040718-1.8161926-0.8821564-2.628067-1.486517c-0.7190781-0.535284-1.2763596-1.2662201-2.1681271-1.5050392    C30.2977028,27.4507961,29.700304,29.6206226,31.0998154,29.9954166L31.0998154,29.9954166z"/></g><g><path class="st0" d="M28.8720837,24.7745724c-2.0229874,4.7252464-4.3573093,9.1916828-7.0886784,13.5485592    c-0.7713394,1.230381,1.1746292,2.3609619,1.9428082,1.1356163c2.7313709-4.3568726,5.065691-8.8233109,7.0886803-13.5485573    C31.3785534,24.5936089,29.4408779,23.4459972,28.8720837,24.7745724L28.8720837,24.7745724z"/></g><g><path class="st0" d="M18.8750401,28.2262688c-0.4044323,0.8213406-0.7888222,1.508297-1.6125946,1.9625034    c-0.6612606,0.364603-1.2770958,0.6231613-1.8708878,1.1011772c-0.5429392,0.4370785-0.3795853,1.4719372,0.2276859,1.766901    c1.0440617,0.507122,2.8812237,1.4123383,3.3247471,2.5753555c0.5108566,1.3395844,2.6869373,0.7583656,2.1696281-0.5981369    c-0.6905689-1.8108253-2.6750908-3.1022377-4.358757-3.9200287c0.0758953,0.5889664,0.1517906,1.1779327,0.2276859,1.7668991    c0.692915-0.5578117,1.6030083-0.7362595,2.2911491-1.3161144c0.7032413-0.5925789,1.1430264-1.3883152,1.5441532-2.2029381    C21.455265,28.0673962,19.5153618,26.9258766,18.8750401,28.2262688L18.8750401,28.2262688z"/></g></g></svg>